<svg id="Layer_1" data-name="Layer 1" xmlns="http://www.w3.org/2000/svg" viewBox="0 0 338.7 193.8"><defs><style>.cls-1{fill:#fff;}</style></defs><title>logo</title><path class="cls-1" d="M193.68,177.48c0,2.78-1.94,5-4.35,5H145.8c-2.41,0-4.35-2.24-4.35-5H.15V187c0,5.54,12.76,6.93,18.08,6.93H323.48c5.3,0,15.37-1.39,15.37-6.93v-9.49Zm124.66,5.37H307.13a.75.75,0,0,1,0-1.5h11.21a.75.75,0,0,1,0,1.5ZM290.27.1H48.73a8.42,8.42,0,0,0-8.41,8.42h0V153.39s0,.07,0,.11v15.31a4.49,4.49,0,0,0,4.48,4.49H294.2a4.49,4.49,0,0,0,4.49-4.49V8.52A8.41,8.41,0,0,0,290.28.1ZM169.5,4.22a2.71,2.71,0,1,1-2.7,2.71h0A2.71,2.71,0,0,1,169.5,4.22ZM286,159.83H53V13.2H286ZM241.45,28.28H97.85a5.15,5.15,0,0,0-5.15,5.15V141.66a5.15,5.15,0,0,0,5.15,5.15H241.45a5.15,5.15,0,0,0,5.15-5.15V33.44a5.15,5.15,0,0,0-5.15-5.15Zm-8.5,107H105.66V39.83H233Zm7.4-44.18a3.47,3.47,0,1,1,3.46-3.47h0a3.46,3.46,0,0,1-3.46,3.47ZM181.53,54H157.76a5.39,5.39,0,0,0-5.39,5.38h0v57a5.39,5.39,0,0,0,5.39,5.38h23.77a5.39,5.39,0,0,0,5.39-5.38h0v-57A5.39,5.39,0,0,0,181.53,54ZM169.6,119a2.73,2.73,0,1,1,2.74-2.72A2.73,2.73,0,0,1,169.6,119Zm14.63-9.73H155V65.34h29.26v43.92Z" transform="translate(-0.15 -0.1)"/></svg>